HIERARCHY
ROOT hips
{
  OFFSET 0 10.6860622 2.3727825e-15
  CHANNELS 6 Xposition Yposition Zposition Yrotation Xrotation Zrotation
  JOINT leftUpperLeg
  {
    OFFSET 0.6642549969 -0.9402397400000004 0
    CHANNELS 3 Yrotation Xrotation Zrotation
    JOINT leftLowerLeg
    {
      OFFSET 0 -3.997221335632195 0
      CHANNELS 3 Yrotation Xrotation Zrotation
      JOINT leftFoot
      {
        OFFSET -0.13777839790000004 -4.6145792000000005 -0.22186036399999998
        CHANNELS 3 Yrotation Xrotation Zrotation
        JOINT leftToes
        {
          OFFSET -0.03777410834999995 -0.9130806927000008 0.85230013
          CHANNELS 3 Yrotation Xrotation Zrotation
          End Site
          {
            OFFSET -0.03777410834999995 -0.9130806927000008 0.85230013
          }
        }
      }
    }
  }
  JOINT rightUpperLeg
  {
    OFFSET -0.6642778626 -0.9402397400000004 0
    CHANNELS 3 Yrotation Xrotation Zrotation
    JOINT rightLowerLeg
    {
      OFFSET 0 -3.997221452859387 0
      CHANNELS 3 Yrotation Xrotation Zrotation
      JOINT rightFoot
      {
        OFFSET 0.1377926176 -4.6145792000000005 -0.22185782299999995
        CHANNELS 3 Yrotation Xrotation Zrotation
        JOINT rightToes
        {
          OFFSET 0.037780746850000047 -0.9130806927000008 0.85230167
          CHANNELS 3 Yrotation Xrotation Zrotation
          End Site
          {
            OFFSET 0.037780746850000047 -0.9130806927000008 0.85230167
          }
        }
      }
    }
  }
  JOINT spine
  {
    OFFSET 0 0.13988381660000015 0
    CHANNELS 3 Yrotation Xrotation Zrotation
    JOINT chest
    {
      OFFSET 0 0.6191039003973773 0
      CHANNELS 3 Yrotation Xrotation Zrotation
      JOINT upperChest
      {
        OFFSET 0 0.9855186130586943 0
        CHANNELS 3 Yrotation Xrotation Zrotation
        JOINT leftShoulder
        {
          OFFSET 0.1807663869 1.5087829790000005 0
          CHANNELS 3 Yrotation Xrotation Zrotation
          JOINT leftUpperArm
          {
            OFFSET 0.5985063006419806 0 0
            CHANNELS 3 Yrotation Xrotation Zrotation
            JOINT leftLowerArm
            {
              OFFSET 2.2993332369501065 0 0
              CHANNELS 3 Yrotation Xrotation Zrotation
              JOINT leftHand
              {
                OFFSET 2.395047042602395 0 0
                CHANNELS 3 Yrotation Xrotation Zrotation
                JOINT leftIndexProximal
                {
                  OFFSET 0.5766295810000004 0.04556643899499946 0.17265095988184
                  CHANNELS 3 Yrotation Xrotation Zrotation
                  JOINT leftIndexIntermediate
                  {
                    OFFSET 0.2957229000000008 -0.019352197700001517 -0.007932640616999987
                    CHANNELS 3 Yrotation Xrotation Zrotation
                    JOINT leftIndexDistal
                    {
                      OFFSET 0.19008243099999922 -0.012484908149998475 -0.002786250786000012
                      CHANNELS 3 Yrotation Xrotation Zrotation
                      End Site
                      {
                        OFFSET 0.19008243099999922 -0.012484908149998475 -0.002786250786000012
                      }
                    }
                  }
                }
                JOINT leftMiddleProximal
                {
                  OFFSET 0.5834975091000001 0.0524350405149987 0.02204081888183999
                  CHANNELS 3 Yrotation Xrotation Zrotation
                  JOINT leftMiddleIntermediate
                  {
                    OFFSET 0.33880573540000003 -0.019871473270000717 -0.00000971183179999946
                    CHANNELS 3 Yrotation Xrotation Zrotation
                    JOINT leftMiddleDistal
                    {
                      OFFSET 0.20676022730000088 -0.012221336379999448 0.0001471936708000235
                      CHANNELS 3 Yrotation Xrotation Zrotation
                      End Site
                      {
                        OFFSET 0.20676022730000088 -0.012221336379999448 0.0001471936708000235
                      }
                    }
                  }
                }
                JOINT leftLittleProximal
                {
                  OFFSET 0.5344154683999995 -0.012880921405001189 -0.24414037221816004
                  CHANNELS 3 Yrotation Xrotation Zrotation
                  JOINT leftLittleIntermediate
                  {
                    OFFSET 0.21758961730000093 -0.011650919939999227 0.011893592810000034
                    CHANNELS 3 Yrotation Xrotation Zrotation
                    JOINT leftLittleDistal
                    {
                      OFFSET 0.1475273964999999 -0.008152365682999818 0.006001092492999946
                      CHANNELS 3 Yrotation Xrotation Zrotation
                      End Site
                      {
                        OFFSET 0.1475273964999999 -0.008152365682999818 0.006001092492999946
                      }
                    }
                  }
                }
                JOINT leftRingProximal
                {
                  OFFSET 0.5799399463000003 0.026911854694997794 -0.12150566991816003
                  CHANNELS 3 Yrotation Xrotation Zrotation
                  JOINT leftRingIntermediate
                  {
                    OFFSET 0.26167887460000006 -0.013480186499999602 0.010996293000000053
                    CHANNELS 3 Yrotation Xrotation Zrotation
                    JOINT leftRingDistal
                    {
                      OFFSET 0.17667108799999987 -0.008990287899999228 0.0055541023999999065
                      CHANNELS 3 Yrotation Xrotation Zrotation
                      End Site
                      {
                        OFFSET 0.17667108799999987 -0.008990287899999228 0.0055541023999999065
                      }
                    }
                  }
                }
                JOINT leftThumbProximal
                {
                  OFFSET 0.11018806699999972 -0.09448718900500053 0.17047963138184
                  CHANNELS 3 Yrotation Xrotation Zrotation
                  JOINT leftThumbIntermediate
                  {
                    OFFSET 0.31062601459999983 -0.08126270900000132 0.15443142000000007
                    CHANNELS 3 Yrotation Xrotation Zrotation
                    JOINT leftThumbDistal
                    {
                      OFFSET 0.21627175790000086 -0.08833193599999878 0.018771167799999988
                      CHANNELS 3 Yrotation Xrotation Zrotation
                      End Site
                      {
                        OFFSET 0.21627175790000086 -0.08833193599999878 0.018771167799999988
                      }
                    }
                  }
                }
              }
            }
          }
        }
        JOINT neck
        {
          OFFSET 0 1.5463305265074576 0
          CHANNELS 3 Yrotation Xrotation Zrotation
          JOINT head
          {
            OFFSET 0 0.8456443600000344 0
            CHANNELS 3 Yrotation Xrotation Zrotation
            JOINT leftEye
            {
              OFFSET 0.30408573140000006 0.5104519199999995 0.1276382305
              CHANNELS 3 Yrotation Xrotation Zrotation
              End Site
              {
                OFFSET 0.30408573140000006 0.5104519199999995 0.1276382305
              }
            }
            JOINT rightEye
            {
              OFFSET -0.30409491089999996 0.5104519199999995 0.1276379445
              CHANNELS 3 Yrotation Xrotation Zrotation
              End Site
              {
                OFFSET -0.30409491089999996 0.5104519199999995 0.1276379445
              }
            }
            JOINT jaw
            {
              OFFSET -3.155239131000001e-7 -0.11984121820000082 0.60178107
              CHANNELS 3 Yrotation Xrotation Zrotation
              End Site
              {
                OFFSET -3.155239131000001e-7 -0.11984121820000082 0.60178107
              }
            }
          }
        }
        JOINT rightShoulder
        {
          OFFSET -0.1807303465 1.5087829790000005 0
          CHANNELS 3 Yrotation Xrotation Zrotation
          JOINT rightUpperArm
          {
            OFFSET -0.5985063796536958 0 0
            CHANNELS 3 Yrotation Xrotation Zrotation
            JOINT rightLowerArm
            {
              OFFSET -2.2993322059002854 0 0
              CHANNELS 3 Yrotation Xrotation Zrotation
              JOINT rightHand
              {
                OFFSET -2.395045314457259 0 0
                CHANNELS 3 Yrotation Xrotation Zrotation
                JOINT rightIndexProximal
                {
                  OFFSET -0.5764487688300002 0.0441371204405987 0.17361932004999997
                  CHANNELS 3 Yrotation Xrotation Zrotation
                  JOINT rightIndexIntermediate
                  {
                    OFFSET -0.29573011380000047 -0.01934826376999843 -0.007698921482999974
                    CHANNELS 3 Yrotation Xrotation Zrotation
                    JOINT rightIndexDistal
                    {
                      OFFSET -0.19008373999999884 -0.012503266380000655 -0.0026365778999999897
                      CHANNELS 3 Yrotation Xrotation Zrotation
                      End Site
                      {
                        OFFSET -0.19008373999999884 -0.012503266380000655 -0.0026365778999999897
                      }
                    }
                  }
                }
                JOINT rightMiddleProximal
                {
                  OFFSET -0.5834852037300005 0.05211639405060153 0.02307162440000001
                  CHANNELS 3 Yrotation Xrotation Zrotation
                  JOINT rightMiddleIntermediate
                  {
                    OFFSET -0.33880114510000003 -0.019952774050000954 0.0002455003561999819
                    CHANNELS 3 Yrotation Xrotation Zrotation
                    JOINT rightMiddleDistal
                    {
                      OFFSET -0.20675694929999955 -0.012273788999999091 0.00030209124000002766
                      CHANNELS 3 Yrotation Xrotation Zrotation
                      End Site
                      {
                        OFFSET -0.20675694929999955 -0.012273788999999091 0.00030209124000002766
                      }
                    }
                  }
                }
                JOINT rightLittleProximal
                {
                  OFFSET -0.5346811737299992 -0.011214256288399227 -0.24363941305000003
                  CHANNELS 3 Yrotation Xrotation Zrotation
                  JOINT rightLittleIntermediate
                  {
                    OFFSET -0.21757715980000092 -0.011771559690000988 0.01201554387
                    CHANNELS 3 Yrotation Xrotation Zrotation
                    JOINT rightLittleDistal
                    {
                      OFFSET -0.1475201849000004 -0.00822055339600003 0.006082065407000015
                      CHANNELS 3 Yrotation Xrotation Zrotation
                      End Site
                      {
                        OFFSET -0.1475201849000004 -0.00822055339600003 0.006082065407000015
                      }
                    }
                  }
                }
                JOINT rightRingProximal
                {
                  OFFSET -0.5800810755299999 0.027657985680600072 -0.12066365025000003
                  CHANNELS 3 Yrotation Xrotation Zrotation
                  JOINT rightRingIntermediate
                  {
                    OFFSET -0.26166445029999974 -0.013623118409999302 0.011164098990000045
                    CHANNELS 3 Yrotation Xrotation Zrotation
                    JOINT rightRingDistal
                    {
                      OFFSET -0.17666387530000027 -0.009072900100000503 0.005668185599999959
                      CHANNELS 3 Yrotation Xrotation Zrotation
                      End Site
                      {
                        OFFSET -0.17666387530000027 -0.009072900100000503 0.005668185599999959
                      }
                    }
                  }
                }
                JOINT rightThumbProximal
                {
                  OFFSET -0.10997596379000074 -0.09577489355940072 0.16989765924999997
                  CHANNELS 3 Yrotation Xrotation Zrotation
                  JOINT rightThumbIntermediate
                  {
                    OFFSET -0.31036620999999986 -0.08229339117999834 0.15440884469999996
                    CHANNELS 3 Yrotation Xrotation Zrotation
                    JOINT rightThumbDistal
                    {
                      OFFSET -0.21631306399999906 -0.08825326400000111 0.018656797720000014
                      CHANNELS 3 Yrotation Xrotation Zrotation
                      End Site
                      {
                        OFFSET -0.21631306399999906 -0.08825326400000111 0.018656797720000014
                      }
                    }
                  }
                }
              }
            }
          }
        }
      }
    }
  }
}
MOTION
Frames: 9
Frame Time: 0.03333333333333333
0 0 -0.18566276920642033 0 23.05552621465645 0 11.973060793526308 -21.253771442782185 -7.2538810338822435 17.362932883379493 78.7657918949813 24.95220059890961 50.82115716109321 63.79387851506225 30.110148432425017 0 0 0 -12.007498079898973 -21.379392447788167 7.339947373831638 -82.54585868117454 85.05763263585935 -89.23559197379357 -6.530690454087384 35.295948785135955 8.697209667841205 0 0 0 -0.07511742106785838 -4.3768205404714635 -0.5412578923333621 -0.7888077061620279 7.486297327589429 -0.7930359172578673 0 0 0 6.975839216209507 16.142310809332837 7.4768091087126685 2.200886303560344 0.9601906755300372 -77.88161927237198 16.75103394946787 5.581438564829683 -26.356327073425504 -28.22869781077302 7.357936973156945 0.6558571190168853 0 0 0 0 0 0 0 0 0 0 0 0 0 0 0 0 0 0 0 0 0 0 0 0 0 0 0 0 0 0 0 0 0 0 0 0 0 0 0 0 0 0 0 0 0 0 8.135476641295861 0 0 8.924209660953986 0 0 0 0 0 0 0 0 0 0 -8.027668141691194 18.281572567259705 2.6209602580070976 -2.998617768397599 3.691044162172132 74.21393861056077 -8.559480254657558 2.9373237594295327 13.005962305276467 25.195994488004704 4.172373987243118 5.4513659372763685 0 0 0 0 0 0 0 0 0 0 0 0 0 0 0 0 0 0 0 0 0 0 0 0 0 0 0 0 0 0 0 0 0 0 0 0 0 0 0 0 0 0 0 0 0
0 0 -0.17703664160664304 0 22.72455829963354 0 11.905721792593909 -20.8093315868254 -7.16175823251972 17.30841924948446 78.74253649560471 24.896579885062266 50.82108680636238 63.793692913426575 30.110186385437352 0 0 0 -11.93492756839909 -20.936257255394704 7.251719594503306 -82.81481645529769 85.05798940494435 -89.50542096987877 -6.530722851763653 35.29584417895602 8.69700835688725 0 0 0 -0.07510828992983012 -4.778924424111726 -0.5406959041256215 -0.7924460684190723 9.236822522752384 -0.8174466591906011 0 0 0 6.762645200023212 15.330098329167548 7.229904820825275 2.20094403002625 0.9602437236672515 -77.88144190727616 16.6119158718343 5.5265491859736136 -26.183805990543473 -28.259940065316517 7.123600847638493 0.624627875296612 0 0 0 0 0 0 0 0 0 0 0 0 0 0 0 0 0 0 0 0 0 0 0 0 0 0 0 0 0 0 0 0 0 0 0 0 0 0 0 0 0 0 0 0 0 0 8.135476641295861 0 0 9.349901816589067 0 0 0 0 0 0 0 0 0 0 -7.802237542525254 17.458151579302026 3.0879002883566464 -2.979823204569084 3.655996459174068 74.04587774541834 -8.479122794111703 2.923566844411478 12.87723283894864 25.234883919240232 3.9429686710366205 5.452807336131494 0 0 0 0 0 0 0 0 0 0 0 0 0 0 0 0 0 0 0 0 0 0 0 0 0 0 0 0 0 0 0 0 0 0 0 0 0 0 0 0 0 0 0 0 0
0 0 -0.16841051400686574 0 22.393589489542265 0 11.839343980521521 -20.364821161645775 -7.070466696106032 17.25411122724574 78.71925858784266 24.841168706951624 50.82105053256088 63.79353051299738 30.110262934617154 0 0 0 -11.863301803587055 -20.493049520316553 7.164354876647914 -83.08337664280671 85.05818762109335 -89.77485221650174 -6.530754297557922 35.29573957291128 8.696807964798595 0 0 0 -0.07510285878603955 -5.181009334386528 -0.5401340961907528 -0.7968591412874904 10.985707756594318 -0.8420813186243515 0 0 0 6.553918998443855 14.517200842339097 6.987109366843444 2.201000903230966 0.9602967718052889 -77.8812554764757 16.47264143383767 5.472073151133917 -26.011156212940588 -28.291036124910992 6.8892537228159085 0.5935449900445104 0 0 0 0 0 0 0 0 0 0 0 0 0 0 0 0 0 0 0 0 0 0 0 0 0 0 0 0 0 0 0 0 0 0 0 0 0 0 0 0 0 0 0 0 0 0 8.135476641295861 0 0 9.775573038789153 0 0 0 0 0 0 0 0 0 0 -7.584863052962448 16.633239132790607 3.5492756029354626 -2.960926486020557 3.6210027380721352 73.87778691979966 -8.398734206336817 2.909989408305244 12.748485515179485 25.273752905062597 3.713565474387289 5.45409201202771 0 0 0 0 0 0 0 0 0 0 0 0 0 0 0 0 0 0 0 0 0 0 0 0 0 0 0 0 0 0 0 0 0 0 0 0 0 0 0 0 0 0 0 0 0
0 0 -0.15978438640708842 0 22.062649320518403 0 11.773915982506628 -19.920255914601718 -6.979991668345334 17.200075156796597 78.69599315035781 24.786024081392405 50.821021032776244 63.7933681135034 30.11034229314422 0 0 0 -11.792605528343417 -20.049776189279733 7.077834968506558 -83.35228776108704 85.0583065545896 -90.04463515810372 -6.53078725843777 35.29563078276817 8.69660642355428 0 0 0 -0.07510219243678636 -5.583063746293937 -0.5395712700986002 -0.8020633566296296 12.732149321355413 -0.8669769645282687 0 0 0 6.3495522763710435 13.703734883623024 6.748308144555471 2.201058629701721 0.9603498199441496 -77.88107644164342 16.33322397635369 5.418018444820315 -25.83839990124674 -28.321986147578368 6.654894706201397 0.5626049065135723 0 0 0 0 0 0 0 0 0 0 0 0 0 0 0 0 0 0 0 0 0 0 0 0 0 0 0 0 0 0 0 0 0 0 0 0 0 0 0 0 0 0 0 0 0 0 8.135476641295861 0 0 10.20120688500797 0 0 0 0 0 0 0 0 0 0 -7.375394669276092 15.807029232232201 4.00528553663557 -2.9419271345997964 3.586067256767593 73.70972346447338 -8.318319354199895 2.8965933672954 12.619722031823281 25.312614091234867 3.484168203860007 5.455222707130001 0 0 0 0 0 0 0 0 0 0 0 0 0 0 0 0 0 0 0 0 0 0 0 0 0 0 0 0 0 0 0 0 0 0 0 0 0 0 0 0 0 0 0 0 0
0 0 -0.15115825880731112 0 21.731724749982348 0 11.709424437135684 -19.475651316403905 -6.890316948930112 17.146205073040804 78.67268794156956 24.731049174075668 50.82098720249775 63.79319798170322 30.110416900767646 0 0 0 -11.722826881330313 -19.606462155977646 6.992149673702859 -83.62095011963491 85.05834619972286 -90.31416849109013 -6.530819179961982 35.295526176999246 8.696406148167833 0 0 0 -0.07510522497239427 -5.985078659184616 -0.5390085533685467 -0.8080777198121208 14.47533774281089 -0.8921729341721972 0 0 0 6.149440730991042 12.889827148923517 6.51339170865334 2.2011165694907873 0.9604025478737325 -77.88089001082483 16.193662059201056 5.364384905268792 -25.665537712866175 -28.35279807080522 6.42052762933538 0.5318086313088787 0 0 0 0 0 0 0 0 0 0 0 0 0 0 0 0 0 0 0 0 0 0 0 0 0 0 0 0 0 0 0 0 0 0 0 0 0 0 0 0 0 0 0 0 0 0 8.135476641295861 0 0 10.626791129109659 0 0 0 0 0 0 0 0 0 0 -7.173677497777137 14.97969258534722 4.456112811156738 -2.9228270558839866 3.5511874293155326 73.54164410354353 -8.23787718258509 2.883378714196892 12.49094499026782 25.351461720909484 3.2547772410672873 5.456196086585696 0 0 0 0 0 0 0 0 0 0 0 0 0 0 0 0 0 0 0 0 0 0 0 0 0 0 0 0 0 0 0 0 0 0 0 0 0 0 0 0 0 0 0 0 0
0 0 -0.1425323995998051 0 21.400830344315214 0 11.645851249489898 -19.031018963194256 -6.801427645684732 17.092581193546092 78.64939525545886 24.676319248248817 50.82095281802608 63.79303558412413 30.110494852359377 0 0 0 -11.653952301374952 -19.163122906898636 6.907281486903534 -83.88987006404597 85.05822726527485 -90.58395779030133 -6.530851101402345 35.29541738714298 8.696206159052448 0 0 0 -0.07511195122244722 -6.38704287463973 -0.538445819813377 -0.8149237909726023 16.214478066957252 -0.9177121808159299 0 0 0 5.953479712814703 12.07558927447375 6.282250471657421 2.201174082650482 0.9604559162243409 -77.88071920684169 16.053956843614774 5.311174517518336 -25.49256430613189 -28.383472249211163 6.186158031321613 0.5011535499551072 0 0 0 0 0 0 0 0 0 0 0 0 0 0 0 0 0 0 0 0 0 0 0 0 0 0 0 0 0 0 0 0 0 0 0 0 0 0 0 0 0 0 0 0 0 0 8.135476641295861 0 0 11.052321260657566 0 0 0 0 0 0 0 0 0 0 -6.9795617471581695 14.151419710717157 4.901947803330881 -2.903624778186484 3.516362808759735 73.37356059560665 -8.157407482231111 2.8703433048555347 12.3621512567393 25.39028231727316 3.02539531811476 5.457012509204254 0 0 0 0 0 0 0 0 0 0 0 0 0 0 0 0 0 0 0 0 0 0 0 0 0 0 0 0 0 0 0 0 0 0 0 0 0 0 0 0 0 0 0 0 0
0 0 -0.1339060036077565 0 21.06996770788275 0 11.583187304205188 -18.586381050503412 -6.713311396467159 17.039202442785097 78.62609769526873 24.62183543474987 50.82090944214091 63.79286545432999 30.1105566820166 0 0 0 -11.585961739838552 -18.719764662350144 6.823215533955904 -84.1586798588773 85.05802904753972 -90.85363879597054 -6.530883022758857 35.29530859743295 8.696004735053144 0 0 0 -0.07512246122146916 -6.788949860593721 -0.537882040611956 -0.8226263121686 17.94879352496024 -0.9436360166191916 0 0 0 5.761570064208689 11.261134879152998 6.054776895983734 2.20123095586494 0.9605091778390792 -77.8805402897691 15.914103579813187 5.258385410777161 -25.31948648896609 -28.413994947829046 5.951778992205626 0.4706399100753582 0 0 0 0 0 0 0 0 0 0 0 0 0 0 0 0 0 0 0 0 0 0 0 0 0 0 0 0 0 0 0 0 0 0 0 0 0 0 0 0 0 0 0 0 0 0 8.135476641295861 0 0 11.477777011729778 0 0 0 0 0 0 0 0 0 0 -6.792907776747915 13.32238147277206 5.342968721815101 -2.884322382184104 3.481596797428884 73.2054827581523 -8.076908717408829 2.8574894832490605 12.233342404738092 25.429097706280437 2.796024523560092 5.457673719053993 0 0 0 0 0 0 0 0 0 0 0 0 0 0 0 0 0 0 0 0 0 0 0 0 0 0 0 0 0 0 0 0 0 0 0 0 0 0 0 0 0 0 0 0 0
0 0 -0.12528014440025048 0 20.73914754137038 0 11.521413756463033 -18.14175047980097 -6.625953086637934 16.98601064464678 78.60276072263869 24.567536247902943 50.820872615853794 63.792703058665715 30.110632959467544 0 0 0 -11.518851724986412 -18.276418673952225 6.739941341930391 -84.42755083384154 85.05771191565809 -91.12338115064779 -6.5309154199408175 35.295208176291936 8.69580342717135 0 0 0 -0.07513768447153467 -7.190786147629628 -0.5373180981657688 -0.831211918492411 19.677499110641804 -0.9699887429431707 0 0 0 5.5736199966939735 10.446590209020105 5.830874565237551 2.201288682345377 0.9605609451407726 -77.88035457603388 15.774113083121865 5.206019147159993 -25.14629579725222 -28.444384876278882 5.717401620494989 0.44026679308892586 0 0 0 0 0 0 0 0 0 0 0 0 0 0 0 0 0 0 0 0 0 0 0 0 0 0 0 0 0 0 0 0 0 0 0 0 0 0 0 0 0 0 0 0 0 0 8.135476641295861 0 0 11.90315364332117 0 0 0 0 0 0 0 0 0 0 -6.613577763917645 12.492756930145097 5.779350542029295 -2.86491946594529 3.4468878791885715 73.03738828080243 -7.996387570236626 2.844817883736924 12.104524485294045 25.467902132342594 2.566665662539984 5.4581802680537255 0 0 0 0 0 0 0 0 0 0 0 0 0 0 0 0 0 0 0 0 0 0 0 0 0 0 0 0 0 0 0 0 0 0 0 0 0 0 0 0 0 0 0 0 0
0 0 -0.1166540168004732 0 20.4083695032849 0 11.460528264191485 -17.697145328798747 -6.539338000666498 16.93305949924025 78.5794363134874 24.51347987332345 50.820841229900815 63.79254066393655 30.11071090841265 0 0 0 -11.45260037122039 -17.83308351519815 6.657441641714454 -84.6961142783508 85.05727589246224 -91.39281575278218 -6.530948380394592 35.29510357106921 8.695602521225776 0 0 0 -0.07515561214261055 -7.592545074455556 -0.5367541134336814 -0.8407124997232347 21.399849157248997 -0.9968197302857823 0 0 0 5.3895345209702 9.632063928573707 5.610439893713856 2.2013453422488327 0.9606142067571477 -77.8801748240717 15.633990028457099 5.154080720206525 -24.973011336163754 -28.474629907816443 5.483021565695547 0.4100326235633376 0 0 0 0 0 0 0 0 0 0 0 0 0 0 0 0 0 0 0 0 0 0 0 0 0 0 0 0 0 0 0 0 0 0 0 0 0 0 0 0 0 0 0 0 0 0 8.135476641295861 0 0 12.328434091133063 0 0 0 0 0 0 0 0 0 0 -6.441442173079638 11.662723998444376 6.211271512564212 -2.845415331017578 3.412239883826136 72.8693210379648 -7.91583742334266 2.832327003746692 11.975691633763114 25.50669439953788 2.3373229579288997 5.458530466128522 0 0 0 0 0 0 0 0 0 0 0 0 0 0 0 0 0 0 0 0 0 0 0 0 0 0 0 0 0 0 0 0 0 0 0 0 0 0 0 0 0 0 0 0 0
